<?xml version="1.0" encoding="UTF-8" standalone="no"?>
<svg
   xmlns:dc="http://purl.org/dc/elements/1.1/"
   xmlns:cc="http://creativecommons.org/ns#"
   xmlns:rdf="http://www.w3.org/1999/02/22-rdf-syntax-ns#"
   xmlns:svg="http://www.w3.org/2000/svg"
   xmlns="http://www.w3.org/2000/svg"
   viewBox="0 0 377.95334 377.95334"
   height="377.95334"
   width="377.95334"
   xml:space="preserve"
   id="svg2"
   version="1.1"><metadata
     id="metadata8"><rdf:RDF><cc:Work
         rdf:about=""><dc:format>image/svg+xml</dc:format><dc:type
           rdf:resource="http://purl.org/dc/dcmitype/StillImage" /></cc:Work></rdf:RDF></metadata><defs
     id="defs6"><clipPath
       id="clipPath20"
       clipPathUnits="userSpaceOnUse"><path
         id="path18"
         d="M 0,283.465 H 283.465 V 0 H 0 Z" /></clipPath></defs><g
     transform="matrix(1.3333333,0,0,-1.3333333,0,377.95333)"
     id="g10"><path
       id="path12"
       style="fill:#051b31;fill-opacity:1;fill-rule:nonzero;stroke:none"
       d="M 0,0 H 283.465 V 283.465 H 0 Z" /><g
       id="g14"><g
         clip-path="url(#clipPath20)"
         id="g16"><g
           transform="translate(61.9855,101.8437)"
           id="g22"><path
             id="path24"
             style="fill:#ffffff;fill-opacity:1;fill-rule:nonzero;stroke:none"
             d="M 0,0 -0.274,-3.584 C -0.67,-4.238 -1.168,-4.821 -1.769,-5.33 -2.37,-5.84 -3.078,-6.243 -3.892,-6.54 c -0.815,-0.297 -1.746,-0.445 -2.797,-0.445 -1.582,0.015 -2.99,0.365 -4.223,1.05 -1.232,0.685 -2.195,1.647 -2.887,2.887 -0.693,1.241 -1.039,2.706 -1.039,4.395 0,1.658 0.342,3.108 1.027,4.348 0.685,1.24 1.648,2.207 2.888,2.899 1.24,0.693 2.697,1.039 4.372,1.039 1.126,0 2.141,-0.148 3.047,-0.445 0.905,-0.297 1.693,-0.666 2.362,-1.107 L -0.685,4.862 H -0.891 C -1.225,6.201 -1.91,7.217 -2.945,7.91 -3.98,8.602 -5.182,8.948 -6.551,8.948 c -1.34,0 -2.5,-0.316 -3.482,-0.947 -0.981,-0.632 -1.742,-1.515 -2.282,-2.648 -0.541,-1.134 -0.811,-2.462 -0.811,-3.983 0,-1.522 0.27,-2.854 0.811,-3.995 0.54,-1.142 1.293,-2.032 2.26,-2.671 0.966,-0.639 2.088,-0.974 3.366,-1.004 1.081,0 2.081,0.201 3.002,0.605 0.921,0.403 1.693,1.065 2.317,1.985 0.624,0.921 1.019,2.158 1.187,3.71 z" /></g><g
           transform="translate(67.6692,96.8444)"
           id="g26"><path
             id="path28"
             style="fill:#ffffff;fill-opacity:1;fill-rule:nonzero;stroke:none"
             d="M 0,0 H 0.068 C 0.084,-0.396 0.232,-0.734 0.514,-1.016 0.795,-1.298 1.134,-1.438 1.53,-1.438 H 1.826 V -1.666 H 0 Z m 2.785,14.313 c 0.974,0 1.811,-0.175 2.511,-0.525 0.7,-0.351 1.24,-0.856 1.621,-1.518 0.38,-0.662 0.57,-1.45 0.57,-2.363 0,-0.7 -0.136,-1.328 -0.41,-1.883 C 6.802,7.468 6.438,7 5.981,6.62 5.524,6.239 5.007,5.954 4.429,5.764 3.85,5.574 3.253,5.501 2.636,5.547 2.02,5.593 1.423,5.767 0.845,6.072 V 6.3 C 1.362,6.224 1.822,6.198 2.226,6.22 c 0.403,0.023 0.829,0.107 1.278,0.251 0.449,0.145 0.867,0.4 1.256,0.765 0.388,0.366 0.68,0.875 0.878,1.53 0.046,0.167 0.084,0.376 0.115,0.627 0.03,0.252 0.037,0.499 0.023,0.742 -0.016,1.05 -0.29,1.895 -0.823,2.534 -0.532,0.639 -1.286,0.959 -2.259,0.959 H 0 c -0.076,0.228 -0.152,0.456 -0.228,0.685 z M 0.068,-1.666 H -1.416 V 14.313 H 0.068 Z M -1.347,0 v -1.666 h -1.826 v 0.228 h 0.297 c 0.395,0 0.734,0.14 1.015,0.422 0.282,0.282 0.43,0.62 0.446,1.016 z m 0,12.646 h -0.068 c 0,0.396 -0.145,0.734 -0.434,1.016 -0.289,0.282 -0.632,0.422 -1.027,0.422 H -3.15 l -0.023,0.229 h 1.826 z" /></g><path
           id="path30"
           style="fill:#ffffff;fill-opacity:1;fill-rule:nonzero;stroke:none"
           d="m 84.881,110.769 h -1.735 v 0.479 h 1.735 z m -2.853,0.708 c 0.243,0 0.505,-0.016 0.787,-0.046 0.282,-0.031 0.555,-0.072 0.822,-0.125 0.266,-0.054 0.509,-0.107 0.73,-0.16 0.221,-0.054 0.392,-0.111 0.514,-0.171 v -2.534 h -0.206 c 0,0.73 -0.251,1.304 -0.753,1.723 -0.502,0.419 -1.111,0.628 -1.826,0.628 -0.837,0 -1.514,-0.263 -2.032,-0.788 -0.517,-0.525 -0.776,-1.138 -0.776,-1.837 0,-0.289 0.065,-0.628 0.194,-1.016 0.129,-0.388 0.369,-0.75 0.719,-1.084 l 4.497,-4.155 c 0.457,-0.426 0.761,-0.883 0.913,-1.37 0.152,-0.487 0.229,-0.958 0.229,-1.415 0,-1.263 -0.385,-2.29 -1.153,-3.082 -0.769,-0.791 -1.808,-1.187 -3.116,-1.187 -0.365,0 -0.796,0.038 -1.29,0.115 -0.495,0.076 -0.974,0.209 -1.438,0.399 -0.464,0.19 -0.849,0.437 -1.153,0.742 -0.045,0.243 -0.068,0.548 -0.068,0.913 0,0.365 0.03,0.749 0.091,1.153 0.061,0.403 0.145,0.772 0.251,1.107 h 0.206 c -0.077,-0.776 0.022,-1.453 0.297,-2.032 0.273,-0.578 0.673,-1.016 1.198,-1.312 0.525,-0.297 1.122,-0.43 1.792,-0.4 0.837,0.046 1.555,0.339 2.157,0.879 0.601,0.54 0.902,1.267 0.902,2.18 0,0.441 -0.077,0.841 -0.228,1.199 -0.153,0.357 -0.374,0.665 -0.662,0.924 l -4.384,4.063 c -0.456,0.426 -0.775,0.894 -0.958,1.404 -0.183,0.51 -0.274,0.985 -0.274,1.427 0,0.639 0.152,1.255 0.457,1.849 0.304,0.593 0.756,1.076 1.357,1.449 0.602,0.373 1.336,0.56 2.204,0.56" /><g
           transform="translate(105.2886,96.8444)"
           id="g32"><path
             id="path34"
             style="fill:#ffffff;fill-opacity:1;fill-rule:nonzero;stroke:none"
             d="M 0,0 H 1.872 C 2.1,-0.518 2.404,-0.887 2.785,-1.107 3.165,-1.328 3.53,-1.438 3.881,-1.438 h 0.182 v -0.228 h -5.136 v 0.228 h 0.205 c 0.289,0 0.548,0.125 0.777,0.376 C 0.137,-0.81 0.167,-0.457 0,0 M -4.246,14.632 2.511,-1.529 H 0.571 L -4.703,12.464 Z M -1.027,3.881 h -7.145 v 0.685 h 7.145 z M -4.246,14.632 -4.041,13.034 -9.77,-1.598 h -1.37 l 5.844,13.879 c 0.167,0.38 0.308,0.708 0.422,0.982 0.114,0.274 0.213,0.54 0.297,0.799 0.083,0.258 0.125,0.448 0.125,0.57 z M -9.154,0 C -9.26,-0.305 -9.276,-0.563 -9.2,-0.776 c 0.076,-0.213 0.202,-0.377 0.377,-0.491 0.175,-0.114 0.354,-0.171 0.536,-0.171 h 0.206 v -0.228 h -4.588 v 0.228 h 0.205 c 0.35,0 0.711,0.11 1.084,0.331 0.373,0.22 0.681,0.589 0.925,1.107 z" /></g><g
           transform="translate(118.2087,111.157)"
           id="g36"><path
             id="path38"
             style="fill:#ffffff;fill-opacity:1;fill-rule:nonzero;stroke:none"
             d="m 0,0 c 1.628,0 3.055,-0.331 4.28,-0.993 1.225,-0.662 2.183,-1.594 2.876,-2.796 0.693,-1.203 1.039,-2.603 1.039,-4.2 0,-1.598 -0.346,-2.995 -1.039,-4.189 C 6.463,-13.373 5.505,-14.305 4.28,-14.975 3.055,-15.644 1.628,-15.979 0,-15.979 h -4.885 l -0.023,0.685 H -3.185 -1.712 0 c 1.309,0 2.446,0.304 3.413,0.913 0.966,0.608 1.719,1.461 2.259,2.557 0.54,1.095 0.811,2.374 0.811,3.835 0,1.461 -0.271,2.739 -0.811,3.834 -0.54,1.096 -1.297,1.948 -2.271,2.557 C 2.427,-0.989 1.293,-0.685 0,-0.685 H -1.792 -3.321 -5.137 V 0 Z M -4.497,-15.979 H -5.981 V 0 h 1.484 z m -1.415,1.666 v -1.666 h -1.827 v 0.228 h 0.297 c 0.396,0 0.734,0.141 1.016,0.422 0.281,0.282 0.43,0.62 0.445,1.016 z m 0,12.647 h -0.069 c 0,0.395 -0.145,0.734 -0.434,1.016 -0.289,0.281 -0.631,0.422 -1.027,0.422 H -7.716 L -7.739,0 h 1.827 z" /></g><g
           transform="translate(140.3284,109.5136)"
           id="g40"><path
             id="path42"
             style="fill:#ffffff;fill-opacity:1;fill-rule:nonzero;stroke:none"
             d="M 0,0 C 0.167,0.457 0.137,0.806 -0.091,1.05 -0.32,1.293 -0.579,1.415 -0.868,1.415 H -1.073 V 1.643 H 3.515 V 1.415 H 3.31 C 2.975,1.415 2.617,1.305 2.237,1.084 1.856,0.864 1.544,0.494 1.301,-0.023 Z m -5.228,-14.655 -0.205,1.598 6.072,14.632 h 1.369 l -6.186,-13.879 c -0.167,-0.38 -0.308,-0.708 -0.422,-0.981 -0.114,-0.275 -0.213,-0.541 -0.297,-0.799 -0.084,-0.259 -0.125,-0.449 -0.125,-0.571 z m 0,0 -7.076,16.162 h 1.94 l 5.593,-13.994 z M -9.747,0 -11.642,-0.023 c -0.229,0.517 -0.533,0.887 -0.913,1.107 -0.381,0.221 -0.746,0.331 -1.096,0.331 h -0.183 v 0.228 h 5.136 V 1.415 H -8.903 C -9.192,1.415 -9.447,1.293 -9.668,1.05 -9.888,0.806 -9.915,0.457 -9.747,0" /></g><g
           transform="translate(152.6095,95.5432)"
           id="g44"><path
             id="path46"
             style="fill:#ffffff;fill-opacity:1;fill-rule:nonzero;stroke:none"
             d="m 0,0 c 1.293,0 2.423,0.32 3.39,0.959 0.966,0.639 1.719,1.529 2.26,2.671 0.54,1.141 0.81,2.472 0.81,3.994 0,1.522 -0.27,2.854 -0.81,3.995 -0.541,1.142 -1.294,2.032 -2.26,2.671 -0.967,0.639 -2.097,0.959 -3.39,0.959 -1.279,0 -2.401,-0.32 -3.367,-0.959 -0.967,-0.639 -1.72,-1.529 -2.26,-2.671 -0.54,-1.141 -0.811,-2.473 -0.811,-3.995 0,-1.522 0.271,-2.853 0.811,-3.994 0.54,-1.142 1.293,-2.032 2.26,-2.671 C -2.401,0.32 -1.279,0 0,0 m 0,15.934 c 1.628,0 3.059,-0.347 4.291,-1.039 C 5.524,14.202 6.486,13.232 7.179,11.984 7.872,10.736 8.218,9.283 8.218,7.624 8.218,5.965 7.872,4.512 7.179,3.264 6.486,2.016 5.524,1.046 4.291,0.354 3.059,-0.339 1.628,-0.685 0,-0.685 c -1.613,0 -3.036,0.346 -4.269,1.039 -1.232,0.692 -2.195,1.662 -2.887,2.91 -0.693,1.248 -1.039,2.701 -1.039,4.36 0,1.659 0.346,3.112 1.039,4.36 0.692,1.248 1.655,2.218 2.887,2.911 1.233,0.692 2.656,1.039 4.269,1.039" /></g><g
           transform="translate(178.1535,101.8437)"
           id="g48"><path
             id="path50"
             style="fill:#ffffff;fill-opacity:1;fill-rule:nonzero;stroke:none"
             d="M 0,0 -0.274,-3.584 C -0.67,-4.238 -1.168,-4.821 -1.769,-5.33 -2.37,-5.84 -3.078,-6.243 -3.892,-6.54 c -0.815,-0.297 -1.746,-0.445 -2.797,-0.445 -1.582,0.015 -2.99,0.365 -4.223,1.05 -1.232,0.685 -2.195,1.647 -2.887,2.887 -0.693,1.241 -1.039,2.706 -1.039,4.395 0,1.658 0.342,3.108 1.027,4.348 0.685,1.24 1.648,2.207 2.888,2.899 1.24,0.693 2.697,1.039 4.372,1.039 1.126,0 2.141,-0.148 3.047,-0.445 0.905,-0.297 1.693,-0.666 2.363,-1.107 L -0.685,4.862 H -0.89 c -0.335,1.339 -1.02,2.355 -2.055,3.048 -1.035,0.692 -2.237,1.038 -3.606,1.038 -1.34,0 -2.5,-0.316 -3.482,-0.947 -0.981,-0.632 -1.742,-1.515 -2.282,-2.648 -0.541,-1.134 -0.811,-2.462 -0.811,-3.983 0,-1.522 0.27,-2.854 0.811,-3.995 0.54,-1.142 1.293,-2.032 2.26,-2.671 0.966,-0.639 2.088,-0.974 3.366,-1.004 1.081,0 2.081,0.201 3.002,0.605 0.921,0.403 1.693,1.065 2.317,1.985 0.624,0.921 1.02,2.158 1.187,3.71 z" /></g><g
           transform="translate(191.7355,96.8444)"
           id="g52"><path
             id="path54"
             style="fill:#ffffff;fill-opacity:1;fill-rule:nonzero;stroke:none"
             d="M 0,0 H 1.872 C 2.1,-0.518 2.404,-0.887 2.785,-1.107 3.165,-1.328 3.53,-1.438 3.881,-1.438 h 0.182 v -0.228 h -5.136 v 0.228 h 0.206 c 0.289,0 0.547,0.125 0.776,0.376 C 0.137,-0.81 0.167,-0.457 0,0 M -4.246,14.632 2.511,-1.529 H 0.571 L -4.702,12.464 Z M -1.027,3.881 h -7.145 v 0.685 h 7.145 z M -4.246,14.632 -4.04,13.034 -9.77,-1.598 h -1.37 l 5.844,13.879 c 0.168,0.38 0.308,0.708 0.423,0.982 0.114,0.274 0.212,0.54 0.296,0.799 0.084,0.258 0.126,0.448 0.126,0.57 z M -9.154,0 c -0.106,-0.305 -0.122,-0.563 -0.045,-0.776 0.076,-0.213 0.201,-0.377 0.376,-0.491 0.175,-0.114 0.354,-0.171 0.537,-0.171 h 0.205 v -0.228 h -4.588 v 0.228 h 0.205 c 0.35,0 0.712,0.11 1.085,0.331 0.372,0.22 0.681,0.589 0.924,1.107 z" /></g><g
           transform="translate(210.9563,101.8437)"
           id="g56"><path
             id="path58"
             style="fill:#ffffff;fill-opacity:1;fill-rule:nonzero;stroke:none"
             d="M 0,0 -0.274,-3.584 C -0.67,-4.238 -1.168,-4.821 -1.769,-5.33 -2.37,-5.84 -3.078,-6.243 -3.892,-6.54 c -0.815,-0.297 -1.746,-0.445 -2.797,-0.445 -1.582,0.015 -2.99,0.365 -4.223,1.05 -1.232,0.685 -2.195,1.647 -2.887,2.887 -0.693,1.241 -1.039,2.706 -1.039,4.395 0,1.658 0.342,3.108 1.027,4.348 0.685,1.24 1.648,2.207 2.888,2.899 1.24,0.693 2.697,1.039 4.372,1.039 1.126,0 2.141,-0.148 3.047,-0.445 0.905,-0.297 1.693,-0.666 2.363,-1.107 L -0.685,4.862 H -0.89 c -0.335,1.339 -1.02,2.355 -2.055,3.048 -1.035,0.692 -2.237,1.038 -3.606,1.038 -1.34,0 -2.5,-0.316 -3.482,-0.947 -0.981,-0.632 -1.742,-1.515 -2.282,-2.648 -0.541,-1.134 -0.811,-2.462 -0.811,-3.983 0,-1.522 0.27,-2.854 0.811,-3.995 0.54,-1.142 1.293,-2.032 2.26,-2.671 0.966,-0.639 2.088,-0.974 3.366,-1.004 1.081,0 2.081,0.201 3.002,0.605 0.921,0.403 1.693,1.065 2.317,1.985 0.624,0.921 1.02,2.158 1.187,3.71 z" /></g><g
           transform="translate(216.64,96.8444)"
           id="g60"><path
             id="path62"
             style="fill:#ffffff;fill-opacity:1;fill-rule:nonzero;stroke:none"
             d="M 0,0 H 0.069 C 0.084,-0.396 0.232,-0.734 0.514,-1.016 0.795,-1.298 1.134,-1.438 1.53,-1.438 H 1.826 V -1.666 H 0 Z m 0,12.646 v 1.667 H 1.826 V 14.084 H 1.53 c -0.396,0 -0.735,-0.14 -1.016,-0.422 C 0.232,13.38 0.084,13.042 0.069,12.646 Z M 0.069,-1.666 H -1.415 V 14.313 H 0.069 Z M -1.346,0 v -1.666 h -1.827 v 0.228 h 0.297 c 0.395,0 0.734,0.14 1.016,0.422 0.281,0.282 0.429,0.62 0.445,1.016 z m 0,12.646 h -0.069 c -0.016,0.396 -0.164,0.734 -0.445,1.016 -0.282,0.282 -0.621,0.422 -1.016,0.422 h -0.297 v 0.229 h 1.827 z" /></g><g
           transform="translate(232.2539,96.8444)"
           id="g64"><path
             id="path66"
             style="fill:#ffffff;fill-opacity:1;fill-rule:nonzero;stroke:none"
             d="M 0,0 H 1.872 C 2.1,-0.518 2.404,-0.887 2.785,-1.107 3.165,-1.328 3.53,-1.438 3.881,-1.438 h 0.182 v -0.228 h -5.136 v 0.228 h 0.206 c 0.289,0 0.547,0.125 0.776,0.376 C 0.137,-0.81 0.167,-0.457 0,0 M -4.246,14.632 2.511,-1.529 H 0.571 L -4.702,12.464 Z M -1.027,3.881 h -7.145 v 0.685 h 7.145 z M -4.246,14.632 -4.04,13.034 -9.77,-1.598 h -1.37 l 5.844,13.879 c 0.168,0.38 0.308,0.708 0.423,0.982 0.114,0.274 0.212,0.54 0.296,0.799 0.084,0.258 0.126,0.448 0.126,0.57 z M -9.154,0 c -0.106,-0.305 -0.122,-0.563 -0.045,-0.776 0.076,-0.213 0.201,-0.377 0.376,-0.491 0.175,-0.114 0.354,-0.171 0.537,-0.171 h 0.205 v -0.228 h -4.588 v 0.228 h 0.205 c 0.35,0 0.712,0.11 1.085,0.331 0.372,0.22 0.681,0.589 0.924,1.107 z" /></g><g
           transform="translate(67.5927,84.7733)"
           id="g68"><path
             id="path70"
             style="fill:#ffffff;fill-opacity:1;fill-rule:nonzero;stroke:none"
             d="M 0,0 -0.963,2.495 C -0.992,2.57 -1.021,2.656 -1.053,2.754 -1.084,2.853 -1.114,2.958 -1.143,3.069 -1.203,2.838 -1.264,2.645 -1.327,2.491 L -2.29,0 Z M 1.729,-2.277 H 1.087 c -0.074,0 -0.134,0.019 -0.179,0.056 -0.046,0.037 -0.08,0.084 -0.103,0.141 L 0.231,-0.599 H -2.521 L -3.094,-2.08 c -0.017,-0.051 -0.051,-0.097 -0.099,-0.137 -0.048,-0.04 -0.108,-0.06 -0.18,-0.06 h -0.642 l 2.453,6.134 h 0.839 z" /></g><g
           transform="translate(76.3068,85.5608)"
           id="g72"><path
             id="path74"
             style="fill:#ffffff;fill-opacity:1;fill-rule:nonzero;stroke:none"
             d="m 0,0 c 0,0.377 -0.051,0.713 -0.154,1.01 -0.103,0.297 -0.248,0.548 -0.437,0.754 -0.188,0.205 -0.416,0.362 -0.685,0.47 -0.268,0.109 -0.567,0.163 -0.898,0.163 h -1.46 v -4.79 h 1.46 c 0.331,0 0.63,0.055 0.898,0.163 0.269,0.109 0.497,0.265 0.685,0.469 0.189,0.204 0.334,0.454 0.437,0.751 C -0.051,-0.713 0,-0.377 0,0 M 0.852,0 C 0.852,-0.459 0.779,-0.877 0.633,-1.254 0.488,-1.631 0.283,-1.953 0.017,-2.221 -0.248,-2.49 -0.567,-2.697 -0.939,-2.844 -1.312,-2.991 -1.723,-3.065 -2.174,-3.065 h -2.29 v 6.134 h 2.29 c 0.451,0 0.862,-0.074 1.235,-0.221 C -0.567,2.701 -0.248,2.493 0.017,2.224 0.283,1.954 0.488,1.631 0.633,1.254 0.779,0.877 0.852,0.46 0.852,0" /></g><g
           transform="translate(84.8713,88.6298)"
           id="g76"><path
             id="path78"
             style="fill:#ffffff;fill-opacity:1;fill-rule:nonzero;stroke:none"
             d="M 0,0 -2.5,-6.134 H -3.244 L -5.744,0 h 0.664 c 0.074,0 0.134,-0.019 0.179,-0.056 0.046,-0.037 0.08,-0.084 0.103,-0.141 l 1.729,-4.327 c 0.037,-0.097 0.074,-0.203 0.109,-0.317 0.036,-0.114 0.068,-0.234 0.097,-0.359 0.028,0.125 0.058,0.245 0.09,0.359 0.031,0.114 0.065,0.22 0.102,0.317 l 1.725,4.327 c 0.017,0.049 0.051,0.094 0.101,0.135 0.05,0.041 0.11,0.062 0.182,0.062 z" /></g><g
           transform="translate(92.0363,85.5608)"
           id="g80"><path
             id="path82"
             style="fill:#ffffff;fill-opacity:1;fill-rule:nonzero;stroke:none"
             d="m 0,0 c 0,0.377 -0.051,0.715 -0.154,1.014 -0.103,0.3 -0.248,0.553 -0.437,0.76 -0.188,0.207 -0.416,0.366 -0.685,0.477 -0.268,0.112 -0.567,0.167 -0.898,0.167 -0.329,0 -0.627,-0.055 -0.895,-0.167 C -3.337,2.14 -3.566,1.981 -3.756,1.774 -3.946,1.567 -4.092,1.314 -4.195,1.014 -4.297,0.715 -4.349,0.377 -4.349,0 c 0,-0.377 0.052,-0.714 0.154,-1.012 0.103,-0.298 0.249,-0.551 0.439,-0.758 0.19,-0.207 0.419,-0.365 0.687,-0.475 0.268,-0.11 0.566,-0.165 0.895,-0.165 0.331,0 0.63,0.055 0.898,0.165 0.269,0.11 0.497,0.268 0.685,0.475 0.189,0.207 0.334,0.46 0.437,0.758 C -0.051,-0.714 0,-0.377 0,0 M 0.852,0 C 0.852,-0.459 0.779,-0.881 0.634,-1.265 0.488,-1.649 0.283,-1.979 0.017,-2.256 -0.248,-2.532 -0.567,-2.747 -0.939,-2.9 c -0.373,-0.152 -0.784,-0.229 -1.235,-0.229 -0.451,0 -0.862,0.077 -1.233,0.229 -0.371,0.153 -0.689,0.368 -0.954,0.644 -0.266,0.277 -0.471,0.607 -0.617,0.991 -0.145,0.384 -0.218,0.806 -0.218,1.265 0,0.46 0.073,0.881 0.218,1.265 0.146,0.384 0.351,0.715 0.617,0.993 0.265,0.278 0.583,0.494 0.954,0.648 0.371,0.154 0.782,0.231 1.233,0.231 0.451,0 0.862,-0.077 1.235,-0.231 C -0.567,2.752 -0.248,2.536 0.017,2.258 0.283,1.98 0.488,1.649 0.634,1.265 0.779,0.881 0.852,0.46 0.852,0" /></g><g
           transform="translate(100.0913,83.7633)"
           id="g84"><path
             id="path86"
             style="fill:#ffffff;fill-opacity:1;fill-rule:nonzero;stroke:none"
             d="m 0,0 c 0.045,0 0.086,-0.019 0.12,-0.056 l 0.33,-0.355 c -0.252,-0.291 -0.556,-0.518 -0.914,-0.681 -0.359,-0.162 -0.792,-0.243 -1.299,-0.243 -0.44,0 -0.839,0.076 -1.199,0.229 -0.359,0.152 -0.666,0.366 -0.92,0.642 -0.254,0.275 -0.451,0.605 -0.591,0.99 -0.14,0.386 -0.209,0.809 -0.209,1.272 0,0.462 0.072,0.886 0.218,1.271 0.145,0.385 0.35,0.716 0.614,0.993 0.264,0.277 0.58,0.491 0.948,0.644 0.368,0.152 0.775,0.229 1.22,0.229 0.437,0 0.822,-0.07 1.156,-0.21 0.334,-0.14 0.627,-0.33 0.881,-0.569 L 0.082,3.775 C 0.064,3.746 0.042,3.723 0.015,3.704 -0.012,3.686 -0.048,3.677 -0.094,3.677 c -0.051,0 -0.114,0.027 -0.189,0.083 -0.073,0.056 -0.171,0.118 -0.291,0.186 -0.119,0.069 -0.269,0.131 -0.449,0.186 -0.18,0.056 -0.401,0.084 -0.663,0.084 -0.317,0 -0.607,-0.055 -0.869,-0.165 C -2.818,3.941 -3.044,3.782 -3.233,3.574 -3.423,3.366 -3.571,3.111 -3.677,2.812 -3.782,2.512 -3.835,2.174 -3.835,1.798 c 0,-0.383 0.055,-0.724 0.165,-1.023 0.11,-0.3 0.259,-0.553 0.449,-0.76 0.19,-0.207 0.414,-0.365 0.672,-0.473 0.258,-0.109 0.538,-0.163 0.837,-0.163 0.182,0 0.347,0.011 0.494,0.032 0.147,0.022 0.283,0.055 0.407,0.101 0.124,0.045 0.24,0.103 0.347,0.173 0.107,0.07 0.213,0.154 0.319,0.251 C -0.097,-0.021 -0.048,0 0,0" /></g><g
           transform="translate(106.4732,84.7733)"
           id="g88"><path
             id="path90"
             style="fill:#ffffff;fill-opacity:1;fill-rule:nonzero;stroke:none"
             d="M 0,0 -0.963,2.495 C -0.992,2.57 -1.022,2.656 -1.053,2.754 -1.084,2.853 -1.114,2.958 -1.143,3.069 -1.203,2.838 -1.264,2.645 -1.327,2.491 L -2.29,0 Z M 1.729,-2.277 H 1.087 c -0.074,0 -0.134,0.019 -0.18,0.056 -0.045,0.037 -0.08,0.084 -0.103,0.141 L 0.231,-0.599 H -2.521 L -3.095,-2.08 c -0.017,-0.051 -0.05,-0.097 -0.098,-0.137 -0.049,-0.04 -0.108,-0.06 -0.18,-0.06 h -0.642 l 2.453,6.134 h 0.838 z" /></g><g
           transform="translate(114.8703,83.7633)"
           id="g92"><path
             id="path94"
             style="fill:#ffffff;fill-opacity:1;fill-rule:nonzero;stroke:none"
             d="m 0,0 c 0.045,0 0.086,-0.019 0.12,-0.056 l 0.33,-0.355 c -0.252,-0.291 -0.556,-0.518 -0.914,-0.681 -0.359,-0.162 -0.792,-0.243 -1.299,-0.243 -0.44,0 -0.839,0.076 -1.199,0.229 -0.359,0.152 -0.666,0.366 -0.92,0.642 -0.254,0.275 -0.451,0.605 -0.591,0.99 -0.14,0.386 -0.209,0.809 -0.209,1.272 0,0.462 0.072,0.886 0.218,1.271 0.145,0.385 0.35,0.716 0.614,0.993 0.264,0.277 0.58,0.491 0.948,0.644 0.368,0.152 0.775,0.229 1.22,0.229 0.437,0 0.822,-0.07 1.156,-0.21 0.334,-0.14 0.627,-0.33 0.881,-0.569 L 0.082,3.775 C 0.064,3.746 0.042,3.723 0.015,3.704 -0.012,3.686 -0.048,3.677 -0.094,3.677 c -0.051,0 -0.114,0.027 -0.189,0.083 -0.073,0.056 -0.171,0.118 -0.291,0.186 -0.119,0.069 -0.269,0.131 -0.449,0.186 -0.18,0.056 -0.401,0.084 -0.663,0.084 -0.317,0 -0.607,-0.055 -0.869,-0.165 C -2.818,3.941 -3.044,3.782 -3.233,3.574 -3.423,3.366 -3.571,3.111 -3.677,2.812 -3.782,2.512 -3.835,2.174 -3.835,1.798 c 0,-0.383 0.055,-0.724 0.165,-1.023 0.11,-0.3 0.259,-0.553 0.449,-0.76 0.19,-0.207 0.414,-0.365 0.672,-0.473 0.258,-0.109 0.538,-0.163 0.837,-0.163 0.182,0 0.347,0.011 0.494,0.032 0.147,0.022 0.283,0.055 0.407,0.101 0.124,0.045 0.24,0.103 0.347,0.173 0.107,0.07 0.213,0.154 0.319,0.251 C -0.097,-0.021 -0.048,0 0,0" /></g><path
           id="path96"
           style="fill:#ffffff;fill-opacity:1;fill-rule:nonzero;stroke:none"
           d="m 118.825,82.496 h -0.83 v 6.134 h 0.83 z" /><g
           transform="translate(125.3608,84.7733)"
           id="g98"><path
             id="path100"
             style="fill:#ffffff;fill-opacity:1;fill-rule:nonzero;stroke:none"
             d="M 0,0 -0.963,2.495 C -0.992,2.57 -1.022,2.656 -1.053,2.754 -1.084,2.853 -1.114,2.958 -1.143,3.069 -1.203,2.838 -1.264,2.645 -1.327,2.491 L -2.29,0 Z M 1.729,-2.277 H 1.087 c -0.074,0 -0.134,0.019 -0.18,0.056 -0.045,0.037 -0.08,0.084 -0.103,0.141 L 0.231,-0.599 H -2.521 L -3.095,-2.08 c -0.017,-0.051 -0.05,-0.097 -0.098,-0.137 -0.048,-0.04 -0.108,-0.06 -0.18,-0.06 h -0.642 l 2.453,6.134 h 0.838 z" /></g><g
           transform="translate(137.0113,83.1725)"
           id="g102"><path
             id="path104"
             style="fill:#ffffff;fill-opacity:1;fill-rule:nonzero;stroke:none"
             d="m 0,0 -0.004,-0.676 h -3.78 v 6.133 h 3.78 V 4.781 H -2.953 V 2.744 h 2.388 V 2.093 H -2.953 V 0 Z" /></g><g
           transform="translate(148.0925,83.7633)"
           id="g106"><path
             id="path108"
             style="fill:#ffffff;fill-opacity:1;fill-rule:nonzero;stroke:none"
             d="m 0,0 c 0.045,0 0.086,-0.019 0.12,-0.056 l 0.33,-0.355 c -0.252,-0.291 -0.556,-0.518 -0.914,-0.681 -0.359,-0.162 -0.792,-0.243 -1.299,-0.243 -0.44,0 -0.839,0.076 -1.199,0.229 -0.359,0.152 -0.666,0.366 -0.92,0.642 -0.254,0.275 -0.451,0.605 -0.591,0.99 -0.14,0.386 -0.209,0.809 -0.209,1.272 0,0.462 0.072,0.886 0.218,1.271 0.145,0.385 0.35,0.716 0.614,0.993 0.264,0.277 0.58,0.491 0.948,0.644 0.368,0.152 0.775,0.229 1.22,0.229 0.437,0 0.822,-0.07 1.156,-0.21 0.334,-0.14 0.627,-0.33 0.881,-0.569 L 0.082,3.775 C 0.064,3.746 0.042,3.723 0.015,3.704 -0.012,3.686 -0.048,3.677 -0.094,3.677 c -0.051,0 -0.114,0.027 -0.189,0.083 -0.073,0.056 -0.171,0.118 -0.291,0.186 -0.119,0.069 -0.269,0.131 -0.449,0.186 -0.18,0.056 -0.401,0.084 -0.663,0.084 -0.317,0 -0.607,-0.055 -0.869,-0.165 C -2.818,3.941 -3.044,3.782 -3.233,3.574 -3.423,3.366 -3.571,3.111 -3.677,2.812 -3.782,2.512 -3.835,2.174 -3.835,1.798 c 0,-0.383 0.055,-0.724 0.165,-1.023 0.11,-0.3 0.259,-0.553 0.449,-0.76 0.19,-0.207 0.414,-0.365 0.672,-0.473 0.258,-0.109 0.538,-0.163 0.837,-0.163 0.182,0 0.347,0.011 0.494,0.032 0.147,0.022 0.283,0.055 0.407,0.101 0.124,0.045 0.24,0.103 0.347,0.173 0.107,0.07 0.213,0.154 0.319,0.251 C -0.097,-0.021 -0.048,0 0,0" /></g><g
           transform="translate(155.9122,85.5608)"
           id="g110"><path
             id="path112"
             style="fill:#ffffff;fill-opacity:1;fill-rule:nonzero;stroke:none"
             d="m 0,0 c 0,0.377 -0.051,0.715 -0.154,1.014 -0.103,0.3 -0.248,0.553 -0.437,0.76 -0.188,0.207 -0.416,0.366 -0.685,0.477 -0.268,0.112 -0.567,0.167 -0.898,0.167 -0.329,0 -0.627,-0.055 -0.895,-0.167 C -3.337,2.14 -3.566,1.981 -3.756,1.774 -3.946,1.567 -4.092,1.314 -4.195,1.014 -4.297,0.715 -4.349,0.377 -4.349,0 c 0,-0.377 0.052,-0.714 0.154,-1.012 0.103,-0.298 0.249,-0.551 0.439,-0.758 0.19,-0.207 0.419,-0.365 0.687,-0.475 0.268,-0.11 0.566,-0.165 0.895,-0.165 0.331,0 0.63,0.055 0.898,0.165 0.269,0.11 0.497,0.268 0.685,0.475 0.189,0.207 0.334,0.46 0.437,0.758 C -0.051,-0.714 0,-0.377 0,0 m 0.852,0 c 0,-0.459 -0.073,-0.881 -0.219,-1.265 -0.145,-0.384 -0.35,-0.714 -0.616,-0.991 -0.265,-0.276 -0.584,-0.491 -0.956,-0.644 -0.373,-0.152 -0.784,-0.229 -1.235,-0.229 -0.451,0 -0.862,0.077 -1.233,0.229 -0.371,0.153 -0.689,0.368 -0.955,0.644 -0.265,0.277 -0.47,0.607 -0.616,0.991 -0.145,0.384 -0.218,0.806 -0.218,1.265 0,0.46 0.073,0.881 0.218,1.265 0.146,0.384 0.351,0.715 0.616,0.993 0.266,0.278 0.584,0.494 0.955,0.648 0.371,0.154 0.782,0.231 1.233,0.231 0.451,0 0.862,-0.077 1.235,-0.231 C -0.567,2.752 -0.248,2.536 0.017,2.258 0.283,1.98 0.488,1.649 0.633,1.265 0.779,0.881 0.852,0.46 0.852,0" /></g><g
           transform="translate(164.6309,88.6298)"
           id="g114"><path
             id="path116"
             style="fill:#ffffff;fill-opacity:1;fill-rule:nonzero;stroke:none"
             d="m 0,0 v -6.134 h -0.415 c -0.066,0 -0.121,0.012 -0.165,0.035 -0.044,0.023 -0.088,0.061 -0.13,0.115 l -3.549,4.623 c 0.006,-0.072 0.01,-0.141 0.013,-0.21 0.003,-0.068 0.004,-0.133 0.004,-0.193 v -4.37 H -4.97 V 0 h 0.429 c 0.037,0 0.068,-0.002 0.094,-0.007 0.026,-0.004 0.049,-0.011 0.069,-0.021 0.019,-0.01 0.039,-0.024 0.059,-0.043 0.02,-0.018 0.042,-0.042 0.065,-0.07 l 3.548,-4.619 c -0.006,0.075 -0.011,0.147 -0.015,0.217 -0.005,0.07 -0.007,0.136 -0.007,0.198 l 0,4.345 z" /></g><g
           transform="translate(171.0463,87.671)"
           id="g118"><path
             id="path120"
             style="fill:#ffffff;fill-opacity:1;fill-rule:nonzero;stroke:none"
             d="m 0,0 c -0.025,-0.043 -0.054,-0.075 -0.083,-0.096 -0.03,-0.022 -0.067,-0.033 -0.109,-0.033 -0.049,0 -0.106,0.025 -0.172,0.073 -0.065,0.049 -0.147,0.102 -0.246,0.161 -0.098,0.058 -0.217,0.112 -0.355,0.16 -0.138,0.049 -0.306,0.073 -0.503,0.073 -0.186,0 -0.349,-0.025 -0.49,-0.075 -0.141,-0.05 -0.26,-0.117 -0.355,-0.203 -0.096,-0.086 -0.168,-0.186 -0.216,-0.302 -0.049,-0.116 -0.073,-0.24 -0.073,-0.374 0,-0.172 0.042,-0.314 0.126,-0.426 0.084,-0.113 0.196,-0.209 0.334,-0.289 0.138,-0.08 0.295,-0.149 0.471,-0.208 0.175,-0.058 0.355,-0.119 0.539,-0.182 0.184,-0.062 0.364,-0.133 0.539,-0.212 0.176,-0.078 0.333,-0.177 0.471,-0.297 0.139,-0.12 0.25,-0.267 0.334,-0.441 0.084,-0.174 0.126,-0.388 0.126,-0.642 0,-0.268 -0.045,-0.52 -0.137,-0.755 -0.091,-0.236 -0.224,-0.441 -0.4,-0.615 -0.175,-0.174 -0.391,-0.311 -0.646,-0.41 -0.255,-0.1 -0.546,-0.15 -0.871,-0.15 -0.4,0 -0.762,0.072 -1.087,0.216 -0.325,0.144 -0.604,0.339 -0.835,0.584 l 0.24,0.394 c 0.023,0.031 0.05,0.058 0.083,0.079 0.033,0.021 0.069,0.032 0.109,0.032 0.037,0 0.08,-0.015 0.126,-0.045 0.048,-0.03 0.101,-0.067 0.161,-0.113 0.06,-0.046 0.128,-0.096 0.206,-0.15 0.077,-0.054 0.165,-0.104 0.263,-0.15 0.098,-0.045 0.21,-0.083 0.336,-0.113 0.125,-0.03 0.267,-0.045 0.423,-0.045 0.198,0 0.373,0.027 0.527,0.081 0.154,0.054 0.284,0.131 0.392,0.229 0.107,0.099 0.189,0.216 0.246,0.353 0.057,0.137 0.085,0.29 0.085,0.458 0,0.186 -0.042,0.338 -0.126,0.456 -0.084,0.119 -0.195,0.218 -0.332,0.298 -0.136,0.08 -0.294,0.147 -0.47,0.203 -0.178,0.056 -0.357,0.113 -0.54,0.171 -0.182,0.059 -0.362,0.126 -0.539,0.203 -0.177,0.077 -0.334,0.177 -0.471,0.3 -0.137,0.123 -0.247,0.276 -0.331,0.46 -0.085,0.184 -0.127,0.412 -0.127,0.683 0,0.217 0.042,0.426 0.127,0.629 0.084,0.203 0.206,0.382 0.368,0.539 0.161,0.157 0.359,0.283 0.594,0.377 0.236,0.094 0.506,0.141 0.811,0.141 0.343,0 0.654,-0.054 0.936,-0.163 0.281,-0.108 0.528,-0.265 0.742,-0.47 z" /></g><g
           transform="translate(176.6319,83.1555)"
           id="g122"><path
             id="path124"
             style="fill:#ffffff;fill-opacity:1;fill-rule:nonzero;stroke:none"
             d="M 0,0 C 0.254,0 0.481,0.043 0.681,0.128 0.88,0.214 1.049,0.334 1.188,0.488 1.326,0.642 1.432,0.826 1.505,1.04 1.577,1.254 1.614,1.489 1.614,1.746 V 5.474 H 2.44 V 1.746 C 2.44,1.392 2.383,1.064 2.271,0.762 2.158,0.459 1.997,0.198 1.787,-0.024 1.577,-0.245 1.321,-0.418 1.019,-0.544 0.716,-0.669 0.377,-0.732 0,-0.732 c -0.376,0 -0.716,0.063 -1.018,0.188 -0.303,0.126 -0.56,0.299 -0.771,0.52 C -2,0.198 -2.162,0.459 -2.275,0.762 -2.387,1.064 -2.444,1.392 -2.444,1.746 v 3.728 h 0.826 V 1.751 c 0,-0.257 0.037,-0.493 0.109,-0.707 C -1.436,0.83 -1.33,0.646 -1.192,0.492 -1.054,0.338 -0.884,0.218 -0.683,0.13 -0.481,0.043 -0.254,0 0,0" /></g><g
           transform="translate(185.7531,83.194)"
           id="g126"><path
             id="path128"
             style="fill:#ffffff;fill-opacity:1;fill-rule:nonzero;stroke:none"
             d="m 0,0 v -0.698 h -3.48 v 6.134 h 0.827 V 0 Z" /></g><g
           transform="translate(191.724,87.9321)"
           id="g130"><path
             id="path132"
             style="fill:#ffffff;fill-opacity:1;fill-rule:nonzero;stroke:none"
             d="M 0,0 H -1.986 V -5.436 H -2.812 V 0 H -4.803 V 0.698 H 0 Z" /></g><g
           transform="translate(198.8847,85.5608)"
           id="g134"><path
             id="path136"
             style="fill:#ffffff;fill-opacity:1;fill-rule:nonzero;stroke:none"
             d="m 0,0 c 0,0.377 -0.051,0.715 -0.154,1.014 -0.103,0.3 -0.248,0.553 -0.437,0.76 C -0.779,1.981 -1.007,2.14 -1.276,2.251 -1.544,2.363 -1.843,2.418 -2.174,2.418 -2.503,2.418 -2.8,2.363 -3.069,2.251 -3.337,2.14 -3.566,1.981 -3.756,1.774 -3.946,1.567 -4.092,1.314 -4.195,1.014 -4.297,0.715 -4.349,0.377 -4.349,0 c 0,-0.377 0.052,-0.714 0.154,-1.012 0.103,-0.298 0.249,-0.551 0.439,-0.758 0.19,-0.207 0.419,-0.365 0.687,-0.475 0.269,-0.11 0.566,-0.165 0.895,-0.165 0.331,0 0.63,0.055 0.898,0.165 0.269,0.11 0.497,0.268 0.685,0.475 0.189,0.207 0.334,0.46 0.437,0.758 C -0.051,-0.714 0,-0.377 0,0 m 0.852,0 c 0,-0.459 -0.073,-0.881 -0.219,-1.265 -0.145,-0.384 -0.35,-0.714 -0.616,-0.991 -0.265,-0.276 -0.584,-0.491 -0.956,-0.644 -0.373,-0.152 -0.784,-0.229 -1.235,-0.229 -0.451,0 -0.862,0.077 -1.233,0.229 -0.371,0.153 -0.689,0.368 -0.955,0.644 -0.265,0.277 -0.47,0.607 -0.616,0.991 -0.145,0.384 -0.218,0.806 -0.218,1.265 0,0.46 0.073,0.881 0.218,1.265 0.146,0.384 0.351,0.715 0.616,0.993 0.266,0.278 0.584,0.494 0.955,0.648 0.371,0.154 0.782,0.231 1.233,0.231 0.451,0 0.862,-0.077 1.235,-0.231 C -0.567,2.752 -0.248,2.536 0.017,2.258 0.283,1.98 0.488,1.649 0.633,1.265 0.779,0.881 0.852,0.46 0.852,0" /></g><g
           transform="translate(204.3331,85.6594)"
           id="g138"><path
             id="path140"
             style="fill:#ffffff;fill-opacity:1;fill-rule:nonzero;stroke:none"
             d="m 0,0 c 0.24,0 0.451,0.029 0.636,0.088 0.184,0.058 0.337,0.141 0.461,0.248 0.125,0.107 0.218,0.235 0.281,0.383 0.063,0.148 0.094,0.312 0.094,0.492 0,0.365 -0.12,0.641 -0.359,0.826 -0.24,0.186 -0.6,0.278 -1.079,0.278 H -0.873 L -0.873,0 Z M 2.833,-3.163 H 2.097 c -0.151,0 -0.262,0.058 -0.334,0.175 l -1.592,2.192 c -0.049,0.068 -0.1,0.117 -0.156,0.147 -0.056,0.03 -0.142,0.045 -0.259,0.045 H -0.873 V -3.163 H -1.7 V 2.97 H 0.034 C 0.422,2.97 0.758,2.931 1.04,2.853 1.322,2.774 1.556,2.661 1.74,2.512 1.924,2.364 2.06,2.185 2.149,1.975 2.237,1.765 2.281,1.531 2.281,1.271 2.281,1.054 2.247,0.852 2.178,0.663 2.11,0.475 2.011,0.306 1.881,0.156 1.751,0.006 1.593,-0.121 1.406,-0.227 1.219,-0.332 1.007,-0.412 0.77,-0.467 0.876,-0.526 0.967,-0.614 1.044,-0.728 Z" /></g><path
           id="path142"
           style="fill:#ffffff;fill-opacity:1;fill-rule:nonzero;stroke:none"
           d="m 210.539,82.496 h -0.831 v 6.134 h 0.831 z" /><g
           transform="translate(217.0747,84.7733)"
           id="g144"><path
             id="path146"
             style="fill:#ffffff;fill-opacity:1;fill-rule:nonzero;stroke:none"
             d="M 0,0 -0.963,2.495 C -0.991,2.57 -1.021,2.656 -1.053,2.754 -1.084,2.853 -1.114,2.958 -1.143,3.069 -1.202,2.838 -1.264,2.645 -1.327,2.491 L -2.29,0 Z M 1.729,-2.277 H 1.087 c -0.074,0 -0.134,0.019 -0.179,0.056 -0.046,0.037 -0.08,0.084 -0.103,0.141 L 0.231,-0.599 H -2.521 L -3.094,-2.08 c -0.017,-0.051 -0.05,-0.097 -0.099,-0.137 -0.048,-0.04 -0.108,-0.06 -0.18,-0.06 h -0.642 l 2.453,6.134 h 0.839 z" /></g><g
           transform="translate(138.7471,188.5289)"
           id="g148"><path
             id="path150"
             style="fill:#ffffff;fill-opacity:1;fill-rule:nonzero;stroke:none"
             d="m 0,0 c 0.072,0.016 0.136,0.04 0.208,0.048 v -2.24 C -0.096,-2.32 -0.384,-2.464 -0.656,-2.64 -0.672,-2.648 -0.696,-2.664 -0.712,-2.672 -1.52,-2.32 -2.464,-2 -3.56,-1.76 c 0.016,0.016 0.04,0.024 0.056,0.04 0.256,0.192 0.52,0.384 0.8,0.552 0.464,0.296 0.968,0.552 1.496,0.76 C -0.824,-0.248 -0.416,-0.112 0,0" /></g><g
           transform="translate(150.635,180.457)"
           id="g152"><path
             id="path154"
             style="fill:#ffffff;fill-opacity:1;fill-rule:nonzero;stroke:none"
             d="m 0,0 c -0.2,-0.048 -0.4,-0.096 -0.592,-0.168 h -0.056 c -0.008,0.408 -0.04,0.792 -0.104,1.16 V 1 c -0.256,1.616 -0.992,2.888 -2.216,3.824 -0.088,0.072 -0.184,0.144 -0.28,0.208 -0.408,0.288 -0.84,0.536 -1.28,0.744 -0.024,0.016 -0.056,0.024 -0.08,0.04 -0.648,0.288 -1.328,0.488 -2.048,0.608 -0.016,0 -0.032,0.008 -0.048,0.008 V 8.44 C -6.568,8.432 -6.432,8.416 -6.288,8.408 -6.208,8.4 -6.144,8.392 -6.072,8.384 -5.624,8.344 -5.176,8.288 -4.72,8.208 -4.472,8.168 -4.224,8.128 -3.976,8.08 -3.584,8.008 -3.208,7.928 -2.84,7.856 h 2.712 V 7.072 L -0.12,6.688 -0.096,5.544 -0.024,1.176 Z" /></g><g
           transform="translate(174.203,182.9689)"
           id="g156"><path
             id="path158"
             style="fill:#ffffff;fill-opacity:1;fill-rule:nonzero;stroke:none"
             d="m 0,0 c 0,-0.576 -0.216,-1.088 -0.584,-1.472 0,-0.008 -0.008,-0.008 -0.008,-0.016 -0.096,-0.16 -1.216,-1.904 -4.192,-2.488 h -0.008 l -0.272,0.064 -0.032,-0.12 c -0.52,-0.088 -1.104,-0.136 -1.752,-0.136 -2.744,0 -4.888,0.488 -6.776,1.064 -1.08,0.336 -2.08,0.696 -3.072,1.016 -1.616,0.528 -3.208,0.944 -5.08,0.936 -0.224,0 -0.456,-0.016 -0.68,-0.024 l -0.072,4.248 c 0.096,0.008 0.184,0.008 0.272,0.008 1.144,0 2.264,-0.24 3.392,-0.632 0.008,-0.008 0.024,-0.016 0.032,-0.016 0.552,-0.184 1.096,-0.408 1.648,-0.664 0.056,-0.016 0.12,-0.048 0.176,-0.072 0.56,-0.264 1.12,-0.552 1.672,-0.84 0.416,-0.216 0.832,-0.448 1.248,-0.672 3.808,-2.072 7.52,-4.184 11.12,-2.192 -0.8,0.32 -1.36,1.096 -1.36,2.008 0,1.2 0.968,2.168 2.16,2.168 C -0.968,2.168 0,1.2 0,0" /></g><g
           transform="translate(169.4134,178.9956)"
           id="g160"><path
             id="path162"
             style="fill:#ffffff;fill-opacity:1;fill-rule:nonzero;stroke:none"
             d="m 0,0 c -0.097,-0.023 -0.194,-0.04 -0.302,-0.057 l 0.028,0.12 z" /></g><g
           transform="translate(142.459,162.3209)"
           id="g164"><path
             id="path166"
             style="fill:#ffffff;fill-opacity:1;fill-rule:nonzero;stroke:none"
             d="M 0,0 V -0.072 L -2,1.504 V 1.576 Z" /></g><g
           transform="translate(151.3951,126.7689)"
           id="g168"><path
             id="path170"
             style="fill:#ffffff;fill-opacity:1;fill-rule:nonzero;stroke:none"
             d="m 0,0 c -0.8,-1.568 -6.336,-1.912 -8.76,-1.992 -0.704,-0.016 -1.136,-0.016 -1.136,-0.016 0,0 -0.44,0 -1.144,0.016 -2.424,0.08 -7.96,0.424 -8.76,1.992 -0.936,1.832 0.464,2.432 2.32,2.952 0.208,0.056 0.424,0.112 0.64,0.168 0.168,0.048 0.352,0.088 0.552,0.128 0.056,0.36 0.152,0.776 0.288,1.224 0.408,1.336 1.224,2.952 2.84,4.072 0.376,0.256 0.696,0.624 0.96,1.064 0.392,0.624 0.672,1.424 0.864,2.28 0.208,0.904 0.336,1.88 0.4,2.856 v 22.312 l 2,-1.576 V 16.856 c 0,-1.488 0.088,-3.184 0.408,-4.688 0.192,-0.92 0.472,-1.776 0.856,-2.448 C -7.392,9.224 -7.048,8.824 -6.64,8.544 -5.024,7.424 -4.208,5.808 -3.8,4.472 -3.664,4.024 -3.568,3.608 -3.504,3.248 -3.312,3.208 -3.128,3.168 -2.96,3.12 -2.744,3.064 -2.528,3.008 -2.312,2.952 -0.464,2.432 0.936,1.832 0,0" /></g><g
           transform="translate(142.459,162.3209)"
           id="g172"><path
             id="path174"
             style="fill:#ffffff;fill-opacity:1;fill-rule:nonzero;stroke:none"
             d="M 0,0 V -0.072 L -2,1.504 V 1.576 Z" /></g><path
           id="path176"
           style="fill:#ffffff;fill-opacity:1;fill-rule:nonzero;stroke:none"
           d="m 161.886,152.683 h 16.76 v 0.792 h -16.76 z" /><g
           transform="translate(170.2664,152.3503)"
           id="g178"><path
             id="path180"
             style="fill:#ffffff;fill-opacity:1;fill-rule:nonzero;stroke:none"
             d="M 0,0 H 7.714 C 6.061,-0.804 6.107,-4.27 0,-4.27 c -6.107,0 -6.061,3.466 -7.714,4.27 z" /></g><path
           id="path182"
           style="fill:#ffffff;fill-opacity:1;fill-rule:nonzero;stroke:none"
           d="m 170.542,154.623 h -0.551 v 23.005 h 0.551 z" /><g
           transform="translate(175.2326,154.5621)"
           id="g184"><path
             id="path186"
             style="fill:#ffffff;fill-opacity:1;fill-rule:nonzero;stroke:none"
             d="M 0,0 -5.235,23.005 -4.697,23.127 0.537,0.122 Z" /></g><g
           transform="translate(165.3005,154.5621)"
           id="g188"><path
             id="path190"
             style="fill:#ffffff;fill-opacity:1;fill-rule:nonzero;stroke:none"
             d="M 0,0 -0.537,0.122 4.697,23.127 5.235,23.005 Z" /></g><path
           id="path192"
           style="fill:#ffffff;fill-opacity:1;fill-rule:nonzero;stroke:none"
           d="m 104.818,152.683 h 16.76 v 0.792 h -16.76 z" /><g
           transform="translate(113.1981,152.3503)"
           id="g194"><path
             id="path196"
             style="fill:#ffffff;fill-opacity:1;fill-rule:nonzero;stroke:none"
             d="M 0,0 H 7.714 C 6.061,-0.804 6.107,-4.27 0,-4.27 c -6.107,0 -6.061,3.466 -7.714,4.27 z" /></g><path
           id="path198"
           style="fill:#ffffff;fill-opacity:1;fill-rule:nonzero;stroke:none"
           d="m 113.474,154.623 h -0.551 v 23.005 h 0.551 z" /><g
           transform="translate(118.1642,154.5621)"
           id="g200"><path
             id="path202"
             style="fill:#ffffff;fill-opacity:1;fill-rule:nonzero;stroke:none"
             d="M 0,0 -5.235,23.005 -4.697,23.127 0.537,0.122 Z" /></g><g
           transform="translate(108.2321,154.5621)"
           id="g204"><path
             id="path206"
             style="fill:#ffffff;fill-opacity:1;fill-rule:nonzero;stroke:none"
             d="M 0,0 -0.537,0.122 4.697,23.127 5.235,23.005 Z" /></g><g
           transform="translate(150.635,180.457)"
           id="g208"><path
             id="path210"
             style="fill:#ffffff;fill-opacity:1;fill-rule:nonzero;stroke:none"
             d="M 0,0 V -0.168 H -0.592 C -0.4,-0.096 -0.2,-0.048 0,0" /></g><g
           transform="translate(132.6841,140.6056)"
           id="g212"><path
             id="path214"
             style="fill:#ffffff;fill-opacity:1;fill-rule:nonzero;stroke:none"
             d="m 0,0 c 1.718,-1.158 3.784,-1.798 6.203,-1.929 -0.239,-0.93 -0.559,-1.689 -0.987,-2.157 -1.632,0.234 -3.11,0.673 -4.434,1.318 -2.106,1.022 -3.778,2.391 -5.016,4.103 -1.239,1.718 -2.021,3.63 -2.346,5.736 -0.274,1.757 -0.188,3.544 0.257,5.347 0.411,-0.382 0.844,-0.753 1.29,-1.101 C -5.279,9.074 -4.999,6.997 -4.206,5.085 -3.333,2.996 -1.935,1.307 0,0" /></g><g
           transform="translate(150.635,180.457)"
           id="g216"><path
             id="path218"
             style="fill:#ffffff;fill-opacity:1;fill-rule:nonzero;stroke:none"
             d="M 0,0 V -0.168 H -0.592 C -0.4,-0.096 -0.2,-0.048 0,0" /></g><g
           transform="translate(132.6841,140.6056)"
           id="g220"><path
             id="path222"
             style="fill:#ffffff;fill-opacity:1;fill-rule:nonzero;stroke:none"
             d="m 0,0 c 1.718,-1.158 3.784,-1.798 6.203,-1.929 -0.239,-0.93 -0.559,-1.689 -0.987,-2.157 -1.632,0.234 -3.11,0.673 -4.434,1.318 -2.106,1.022 -3.778,2.391 -5.016,4.103 -1.239,1.718 -2.021,3.63 -2.346,5.736 -0.274,1.757 -0.188,3.544 0.257,5.347 0.411,-0.382 0.844,-0.753 1.29,-1.101 C -5.279,9.074 -4.999,6.997 -4.206,5.085 -3.333,2.996 -1.935,1.307 0,0" /></g><g
           transform="translate(142.459,162.3209)"
           id="g224"><path
             id="path226"
             style="fill:#ffffff;fill-opacity:1;fill-rule:nonzero;stroke:none"
             d="M 0,0 V -0.072 L -2,1.504 V 1.576 Z" /></g><g
           transform="translate(154.611,158.201)"
           id="g228"><path
             id="path230"
             style="fill:#ffffff;fill-opacity:1;fill-rule:nonzero;stroke:none"
             d="m 0,0 c -0.984,-1.504 -2.128,-2.728 -3.416,-3.656 -0.088,0.232 -0.192,0.464 -0.296,0.696 -0.712,1.536 -1.768,2.968 -3.168,4.288 -0.4,0.368 -0.816,0.728 -1.264,1.088 l -0.176,0.136 -7.024,5.536 -0.928,0.736 -3.6,2.84 c -1.528,1.216 -2.544,2.6 -3.064,4.144 -0.52,1.536 -0.784,2.896 -0.784,4.064 0,0.872 0.104,1.728 0.312,2.568 1,-0.08 2.184,-0.376 3.336,-1.104 v -0.152 c 0,-0.656 0.088,-1.328 0.264,-2.024 0.168,-0.696 0.48,-1.368 0.912,-2.016 0.432,-0.656 1,-1.264 1.696,-1.824 l 1.456,-1.152 1.368,-1.08 2.656,-2.096 1.416,-1.12 L -5.152,5.8 C -2.976,4.104 -1.304,2.248 -0.128,0.224 -0.088,0.152 -0.04,0.072 0,0" /></g><g
           transform="translate(159.259,167.865)"
           id="g232"><path
             id="path234"
             style="fill:#ffffff;fill-opacity:1;fill-rule:nonzero;stroke:none"
             d="m 0,0 -0.704,-9.808 c -0.456,-0.8 -0.968,-1.56 -1.536,-2.28 -0.28,-0.368 -0.584,-0.728 -0.912,-1.08 -0.44,-0.496 -0.912,-0.968 -1.416,-1.416 -0.808,-0.72 -1.688,-1.368 -2.648,-1.936 -0.368,-0.224 -0.752,-0.432 -1.144,-0.624 -0.544,-0.272 -1.112,-0.528 -1.696,-0.752 -1.656,-0.64 -3.504,-1.024 -5.544,-1.152 v 1.88 c 2.16,0.176 4.184,0.704 6.08,1.584 0.28,0.128 0.552,0.264 0.816,0.416 0.368,0.2 0.72,0.424 1.064,0.656 1.352,0.936 2.552,2.144 3.608,3.64 0.168,0.232 0.336,0.48 0.496,0.728 0.096,0.144 0.184,0.288 0.272,0.44 1.456,2.464 2.392,5.696 2.8,9.704 z" /></g><g
           transform="translate(154.611,158.201)"
           id="g236"><path
             id="path238"
             style="fill:#ffffff;fill-opacity:1;fill-rule:nonzero;stroke:none"
             d="m 0,0 c -0.984,-1.504 -2.128,-2.728 -3.416,-3.656 -0.088,0.232 -0.192,0.464 -0.296,0.696 -0.712,1.536 -1.768,2.968 -3.168,4.288 -0.4,0.368 -0.816,0.728 -1.264,1.088 l -0.176,0.136 -7.024,5.536 -0.928,0.736 -3.6,2.84 c -1.528,1.216 -2.544,2.6 -3.064,4.144 -0.52,1.536 -0.784,2.896 -0.784,4.064 0,0.872 0.104,1.728 0.312,2.568 1,-0.08 2.184,-0.376 3.336,-1.104 v -0.152 c 0,-0.656 0.088,-1.328 0.264,-2.024 0.168,-0.696 0.48,-1.368 0.912,-2.016 0.432,-0.656 1,-1.264 1.696,-1.824 l 1.456,-1.152 1.368,-1.08 2.656,-2.096 1.416,-1.12 L -5.152,5.8 C -2.976,4.104 -1.304,2.248 -0.128,0.224 -0.088,0.152 -0.04,0.072 0,0" /></g><g
           transform="translate(156.051,146.2809)"
           id="g240"><path
             id="path242"
             style="fill:#ffffff;fill-opacity:1;fill-rule:nonzero;stroke:none"
             d="M 0,0 C -0.616,-1.912 -1.6,-3.624 -2.968,-5.12 -4.344,-6.616 -6.04,-7.8 -8.08,-8.672 c -0.944,-0.4 -1.952,-0.704 -3.024,-0.92 -0.432,0.576 -0.744,1.464 -0.96,2.528 0.776,0.232 1.504,0.536 2.192,0.904 1.8,0.976 3.208,2.28 4.232,3.912 0.904,1.432 1.448,3 1.64,4.68 0.024,0.216 0.04,0.432 0.056,0.656 0.008,0.208 0.016,0.408 0.016,0.616 v 0.008 0.016 c 1.232,0.68 2.36,1.472 3.368,2.376 0.328,0.296 0.64,0.6 0.952,0.912 C 0.424,6.856 0.448,6.704 0.472,6.544 0.504,6.36 0.528,6.176 0.552,5.992 0.584,5.712 0.608,5.448 0.616,5.176 0.736,3.384 0.52,1.656 0,0" /></g><g
           transform="translate(140.259,183.153)"
           id="g244"><path
             id="path246"
             style="fill:#ffffff;fill-opacity:1;fill-rule:nonzero;stroke:none"
             d="M 0,0 H -0.104 V 0.088 C -0.064,0.056 -0.032,0.032 0,0" /></g><g
           transform="translate(145.1871,195.2809)"
           id="g248"><path
             id="path250"
             style="fill:#ffffff;fill-opacity:1;fill-rule:nonzero;stroke:none"
             d="m 0,0 c -0.92,0.096 -1.88,0.144 -2.856,0.144 -1.592,0 -3.12,-0.128 -4.576,-0.384 -0.064,0.256 -0.096,0.52 -0.096,0.784 -0.008,1.224 0.776,1.936 1.592,2.728 0.752,0.736 1.568,1.464 2.128,2.368 0.024,0.04 0.048,0.08 0.072,0.12 0.536,-0.928 1.36,-1.664 2.12,-2.4 0.68,-0.656 1.424,-1.304 1.608,-2.272 C -0.008,1.064 0,1.04 0,1.024 0.056,0.688 0.056,0.336 0,0" /></g><g
           transform="translate(139.259,150.905)"
           id="g252"><path
             id="path254"
             style="fill:#ffffff;fill-opacity:1;fill-rule:nonzero;stroke:none"
             d="m 0,0 v -1.984 c -3.008,0.352 -5.736,1.256 -8.2,2.704 -3.184,1.872 -5.672,4.512 -7.464,7.904 -1.784,3.392 -2.68,7.4 -2.68,12.024 0,2.456 0.264,4.744 0.784,6.864 0.096,0.024 0.192,0.048 0.28,0.072 0.968,0.272 1.856,0.576 2.712,0.864 0.608,0.208 1.192,0.4 1.776,0.576 -0.752,-2.488 -1.128,-5.256 -1.128,-8.312 0,-4.168 0.696,-7.808 2.096,-10.936 1.392,-3.12 3.336,-5.56 5.84,-7.304 C -4.2,1.216 -2.2,0.392 0,0" /></g><g
           transform="translate(133.2751,153.3769)"
           id="g256"><path
             id="path258"
             style="fill:#ffffff;fill-opacity:1;fill-rule:nonzero;stroke:none"
             d="m 0,0 c -2.504,1.744 -4.448,4.184 -5.84,7.304 -1.4,3.128 -2.096,6.768 -2.096,10.936 0,3.056 0.376,5.824 1.128,8.312 -0.584,-0.176 -1.168,-0.368 -1.776,-0.576 -0.856,-0.288 -1.744,-0.592 -2.712,-0.864 -0.088,-0.024 -0.184,-0.048 -0.28,-0.072 -0.52,-2.12 -0.784,-4.408 -0.784,-6.864 0,-4.624 0.896,-8.632 2.68,-12.024 1.792,-3.392 4.28,-6.032 7.464,-7.904 2.464,-1.448 5.192,-2.352 8.2,-2.704 v 1.984 C 3.784,-2.08 1.784,-1.256 0,0" /></g><g
           transform="translate(156.835,186.1289)"
           id="g260"><path
             id="path262"
             style="fill:#ffffff;fill-opacity:1;fill-rule:nonzero;stroke:none"
             d="m 0,0 c -0.368,0.152 -0.72,0.288 -1.064,0.408 -0.504,0.176 -0.992,0.32 -1.472,0.44 -0.752,0.976 -1.64,1.816 -2.648,2.528 -2.568,1.824 -5.544,2.768 -8.92,2.832 -0.128,0.008 -0.264,0.008 -0.4,0.008 -0.752,0 -1.472,-0.04 -2.176,-0.12 -2.56,-0.296 -4.832,-1.12 -6.824,-2.472 -1.056,-0.72 -2.024,-1.568 -2.88,-2.528 -0.312,-0.016 -0.624,-0.048 -0.936,-0.104 -1.624,-0.248 -3.208,-0.872 -4.72,-1.616 1.632,2.424 3.712,4.376 6.24,5.872 2.144,1.272 4.536,2.112 7.184,2.536 1.312,0.208 2.68,0.312 4.112,0.312 0.848,0 1.68,-0.032 2.48,-0.112 1.944,-0.16 3.736,-0.536 5.392,-1.112 2.344,-0.808 4.384,-1.816 6.112,-3.024 z" /></g><g
           transform="translate(137.403,186.1689)"
           id="g264"><path
             id="path266"
             style="fill:#ffffff;fill-opacity:1;fill-rule:nonzero;stroke:none"
             d="M 0,0 C 0.232,-0.088 0.464,-0.184 0.688,-0.28 0.672,-0.288 0.648,-0.304 0.632,-0.312 -0.176,0.04 -1.12,0.36 -2.216,0.6 -2.2,0.616 -2.176,0.624 -2.16,0.64 -1.392,0.472 -0.672,0.256 0,0" /></g><g
           transform="translate(150.0831,180.3209)"
           id="g268"><path
             id="path270"
             style="fill:#ffffff;fill-opacity:1;fill-rule:nonzero;stroke:none"
             d="M 0,0 -0.072,-0.032 H -0.096 C -0.104,0.376 -0.136,0.76 -0.2,1.128 v 0.008 c -0.256,1.616 -0.992,2.888 -2.216,3.824 -0.088,0.072 -0.184,0.144 -0.28,0.208 -0.408,0.288 -0.84,0.536 -1.28,0.744 h 0.16 l 0.272,-0.144 c 0.4,-0.216 0.8,-0.48 1.184,-0.784 C -1.08,4 -0.32,2.608 -0.104,0.864 Z" /></g><g
           transform="translate(142.6991,170.913)"
           id="g272"><path
             id="path274"
             style="fill:#ffffff;fill-opacity:1;fill-rule:nonzero;stroke:none"
             d="M 0,0 V -0.048 C 0.008,-0.072 0.008,-0.096 0.008,-0.12 l -2.84,2.24 C -2.84,2.152 -2.848,2.176 -2.856,2.208 -3.456,4.56 -4.648,7.424 -6.96,9.2 c -0.008,0 -0.016,0.008 -0.024,0.016 -0.328,0.256 -0.688,0.488 -1.064,0.696 -0.896,0.48 -1.92,0.816 -3.112,0.936 -0.312,0.032 -0.64,0.056 -0.976,0.056 -0.072,0 -0.144,0 -0.216,-0.008 h -0.088 c -0.656,-0.008 -1.272,-0.072 -1.888,-0.184 -0.016,0 -0.04,-0.008 -0.056,-0.008 -0.472,-0.08 -0.92,-0.176 -1.368,-0.296 -0.008,0 -0.016,-0.008 -0.024,-0.008 -1.576,-0.416 -3.096,-1.032 -4.848,-1.544 -0.136,-0.04 -0.28,-0.08 -0.424,-0.12 -0.304,-0.088 -0.624,-0.176 -0.944,-0.248 -0.12,-0.032 -0.232,-0.056 -0.352,-0.08 -1.376,-0.312 -2.92,-0.52 -4.72,-0.52 -0.456,0 -0.872,0.024 -1.264,0.072 h -0.008 l -0.04,0.184 -0.48,-0.112 h -0.016 c -3.168,0.528 -4.344,2.376 -4.448,2.536 0,0.008 -0.008,0.008 -0.008,0.016 -0.368,0.384 -0.584,0.896 -0.584,1.472 0,1.2 0.968,2.168 2.168,2.168 1.192,0 2.16,-0.968 2.16,-2.168 0,-0.912 -0.56,-1.688 -1.36,-2.008 3.184,-1.768 6.456,-0.32 9.816,1.48 0.088,0.048 0.168,0.088 0.256,0.136 0.512,0.28 1.032,0.568 1.552,0.848 0.08,0.048 0.168,0.088 0.248,0.136 1.88,1.008 3.8,1.952 5.736,2.312 0.112,0.032 0.224,0.048 0.336,0.064 0.44,0.072 0.888,0.112 1.328,0.112 h 0.016 c 0.096,0 0.192,0 0.28,-0.008 0.48,0 0.928,-0.024 1.352,-0.064 0.496,-0.04 0.96,-0.096 1.408,-0.168 1.112,-0.184 2.072,-0.448 2.888,-0.76 0.424,-0.16 0.808,-0.328 1.16,-0.504 0.928,-0.464 1.592,-0.944 2.024,-1.304 V 12.24 h 0.104 c -0.032,0.032 -0.064,0.056 -0.104,0.088 v 7.768 c 0.704,0.096 1.424,0.136 2.176,0.136 0.136,0 0.272,0 0.4,-0.008 V 12.24 c 0.56,0.488 1.616,1.256 3.232,1.88 h 0.008 c 0.344,-0.184 0.68,-0.408 1,-0.664 1.04,-0.8 1.64,-1.888 1.816,-3.328 C 1.76,8.136 0.416,2.784 0,0" /></g><g
           transform="translate(140.155,183.241)"
           id="g276"><path
             id="path278"
             style="fill:#ffffff;fill-opacity:1;fill-rule:nonzero;stroke:none"
             d="M 0,0 C 0.04,-0.032 0.072,-0.056 0.104,-0.088 H 0 Z" /></g><g
           transform="translate(142.7711,185.857)"
           id="g280"><path
             id="path282"
             style="fill:#ffffff;fill-opacity:1;fill-rule:nonzero;stroke:none"
             d="m 0,0 c -0.008,-0.712 -0.024,-1.632 -0.04,-2.704 v 2.696 z" /></g></g></g></g></svg>